<svg width="38" height="13" viewBox="0 0 38 13" fill="none" xmlns="http://www.w3.org/2000/svg">
<path d="M34.1714 6.49837H34.1186C33.8161 6.49837 33.5699 6.25533 33.5699 5.95684V0.866123C33.5699 0.62798 33.4707 0.411041 33.3137 0.252823C33.1534 0.0962359 32.9336 0 32.6923 0L31.58 0C30.9982 0 30.4396 0.228356 30.0281 0.634504L24.7279 5.86223C24.318 6.27001 23.761 6.49674 23.176 6.49674C22.8735 6.49674 22.6273 6.2537 22.6273 5.95521V0.866123C22.6273 0.62798 22.5281 0.411041 22.3711 0.252823C22.2108 0.0962359 21.991 0 21.7497 0L20.606 0C20.0242 0 19.4656 0.228356 19.0541 0.634504L13.7539 5.86223C13.344 6.27001 12.787 6.49674 12.202 6.49674C11.8995 6.49674 11.6533 6.2537 11.6533 5.95521L11.6533 0.866123C11.6533 0.62798 11.5541 0.411041 11.3971 0.252823C11.2368 0.0962359 11.017 0 10.7757 0L9.68654 0C9.10478 0 8.54617 0.228356 8.13464 0.634504L2.83605 5.86386C2.42618 6.27164 1.86756 6.49837 1.28416 6.49837H0L0 12.9967H1.53041C2.11382 12.9967 2.67078 12.77 3.0823 12.3622L5.60765 9.87152L9.53614 5.99272C9.68488 5.84592 9.86833 5.78068 10.0452 5.78068C10.4203 5.78068 10.779 6.06612 10.779 6.5H10.7773V12.4568C10.779 12.7553 11.0252 12.9984 11.3277 12.9984H12.5044C13.0878 12.9984 13.6448 12.7716 14.0563 12.3639L15.6049 10.8371L16.5816 9.87315L20.5101 5.99435C20.6523 5.85408 20.8242 5.79046 20.9927 5.78394C21.358 5.79699 21.6984 6.07754 21.6984 6.5H21.6968L21.6968 12.4568C21.6984 12.7553 21.9447 12.9984 22.2471 12.9984H23.447C24.0304 12.9984 24.5874 12.7716 24.9989 12.3639L26.5789 10.8061L27.5259 9.87315L31.4544 5.99435C31.5998 5.85082 31.7783 5.78557 31.9519 5.78394C32.3221 5.79046 32.6741 6.07265 32.6741 6.50163H32.6724V12.4585C32.6741 12.757 32.9203 13 33.2228 13H35.3052C36.5084 13 37.4802 12.0458 37.4967 10.8649C37.4967 10.8551 37.5 10.8453 37.5 10.8355V6.50326L34.1764 6.50326L34.1714 6.49837Z" fill="black"/>
</svg>
