<?xml version="1.0" standalone="no"?>
<!DOCTYPE svg PUBLIC "-//W3C//DTD SVG 20010904//EN"
 "http://www.w3.org/TR/2001/REC-SVG-20010904/DTD/svg10.dtd">
<svg version="1.0" xmlns="http://www.w3.org/2000/svg"
 width="700.000000pt" height="700.000000pt" viewBox="0 0 700.000000 700.000000"
 preserveAspectRatio="xMidYMid meet">
<metadata>
Created by potrace 1.14, written by Peter Selinger 2001-2017
</metadata>
<g transform="translate(0.000000,700.000000) scale(0.100000,-0.100000)"
fill="#000000" stroke="none">
<path d="M1897 4598 c-99 -21 -125 -43 -624 -541 -265 -264 -495 -488 -511
-499 -66 -41 -133 -56 -273 -57 -73 -1 -135 -4 -137 -6 -2 -1 -4 -250 -4 -552
l0 -548 158 1 c88 0 171 3 187 7 87 19 116 45 703 630 557 555 583 579 624
584 31 4 52 1 76 -12 64 -34 63 -26 64 -608 0 -320 4 -536 10 -552 17 -43 59
-53 215 -50 149 3 196 13 266 60 20 13 291 278 602 589 354 354 575 568 591
572 44 11 93 -4 120 -37 14 -17 27 -38 27 -47 1 -9 2 -254 3 -543 1 -486 3
-527 19 -553 10 -15 28 -31 41 -35 12 -5 87 -8 166 -6 154 3 200 13 271 60 20
13 289 276 597 584 308 309 572 565 587 571 38 14 73 12 104 -6 58 -34 56 -13
61 -610 5 -600 2 -570 62 -593 13 -5 120 -8 238 -6 229 2 274 10 344 58 82 57
144 151 160 241 6 29 10 592 6 784 l0 22 -289 0 c-160 0 -301 4 -315 10 -55
20 -56 28 -55 521 1 359 -2 460 -12 484 -36 80 -74 94 -260 90 -233 -3 -186
30 -765 -548 -412 -411 -492 -487 -546 -515 -69 -36 -156 -50 -200 -33 -55 21
-55 26 -57 526 -1 522 0 511 -80 552 -40 20 -55 22 -190 19 -156 -4 -199 -14
-268 -60 -21 -14 -254 -241 -518 -504 -362 -361 -492 -484 -528 -501 -65 -31
-168 -48 -201 -33 -58 26 -57 19 -58 520 0 349 -3 466 -13 489 -7 17 -30 43
-51 59 -37 29 -39 29 -173 30 -75 0 -153 -3 -174 -8z"/>
</g>
</svg>
